<svg xmlns="http://www.w3.org/2000/svg" width="64" height="64"><path d="M32 0C14.327 0 0 14.327 0 32s14.327 32 32 32 32-14.327 32-32S49.673 0 32 0zm0 62C15.432 62 2 48.568 2 32.001 2 15.432 15.432 2 32 2c16.568 0 30 13.432 30 30.001C62 48.568 48.568 62 32 62z" fill="#fff"/><path d="M46 21H18a2 2 0 00-2 2v18a2 2 0 002 2h28a2 2 0 002-2V23a2 2 0 00-2-2zm-1.795 2L32 35 19.891 23h24.314zM18 41V24.006l9.589 9.589L20.061 41H18zm4.985 0l6.081-5.927 1.58 1.579a2 2 0 002.829 0l1.531-1.531L41.087 41H22.985zM46 41h-1.939l-7.527-7.405L46 24.128V41z" fill="#fff"/></svg>